<svg width="100" height="100" version="1.1" viewBox="0 0 99.999995 99.999997" xmlns="http://www.w3.org/2000/svg"><g transform="translate(0 -952)"><g transform="translate(12.1 -6.7)" fill-rule="evenodd"><path d="m9.53 966a43.3 43.3 0 0 0 -19.1 4.48l23.1 40 20 34.7 4.24 7.35 38.5-66.7a43.3 43.3 0 0 1 -10.1 1.25 43.3 43.3 0 0 1 -28.3 -10.7v0.0918a43.3 43.3 0 0 0 -28.3 -10.6z"/><path transform="translate(-3.81e-6 952)" d="m66.2 13.4a43.3 43.3 0 0 0 -25.4 8.29 43.3 43.3 0 0 0 25.4 8.25 43.3 43.3 0 0 0 13.4 -2.17l5.71-9.89a43.3 43.3 0 0 0 -19.1 -4.48z"/></g></g></svg>
