<?xml version="1.0" encoding="UTF-8" standalone="no"?>
<!-- Created with Inkscape (http://www.inkscape.org/) -->

<svg
   xmlns:dc="http://purl.org/dc/elements/1.1/"
   xmlns:cc="http://creativecommons.org/ns#"
   xmlns:rdf="http://www.w3.org/1999/02/22-rdf-syntax-ns#"
   xmlns:svg="http://www.w3.org/2000/svg"
   xmlns="http://www.w3.org/2000/svg"
   xmlns:sodipodi="http://sodipodi.sourceforge.net/DTD/sodipodi-0.dtd"
   xmlns:inkscape="http://www.inkscape.org/namespaces/inkscape"
   width="100"
   height="100"
   viewBox="0 0 99.999995 99.999997"
   id="svg2"
   version="1.1"
   inkscape:version="0.91 r13725"
   sodipodi:docname="draft.svg">
  <defs
     id="defs4" />
  <sodipodi:namedview
     id="base"
     pagecolor="#ffffff"
     bordercolor="#666666"
     borderopacity="1.0"
     inkscape:pageopacity="0.0"
     inkscape:pageshadow="2"
     inkscape:zoom="4"
     inkscape:cx="11.93576"
     inkscape:cy="66.997344"
     inkscape:document-units="px"
     inkscape:current-layer="layer1"
     showgrid="false"
     units="px"
     showguides="true"
     inkscape:guide-bbox="true"
     inkscape:window-width="1676"
     inkscape:window-height="1006"
     inkscape:window-x="4"
     inkscape:window-y="0"
     inkscape:window-maximized="1">
    <sodipodi:guide
       position="-0.24999999,99.874997"
       orientation="0,1"
       id="guide4152" />
    <sodipodi:guide
       position="49.999997,0"
       orientation="1,0"
       id="guide4154"
       inkscape:label=""
       inkscape:color="rgb(0,0,255)" />
    <sodipodi:guide
       position="0,86.602997"
       orientation="0,1"
       id="guide4193"
       inkscape:label=""
       inkscape:color="rgb(0,0,255)" />
  </sodipodi:namedview>
  <metadata
     id="metadata7">
    <rdf:RDF>
      <cc:Work
         rdf:about="">
        <dc:format>image/svg+xml</dc:format>
        <dc:type
           rdf:resource="http://purl.org/dc/dcmitype/StillImage" />
        <dc:title></dc:title>
      </cc:Work>
    </rdf:RDF>
  </metadata>
  <g
     inkscape:label="Layer 1"
     inkscape:groupmode="layer"
     id="layer1"
     transform="translate(0,-952.36223)">
    <path
       inkscape:transform-center-x="-3.9583478e-05"
       transform="scale(-1,1)"
       inkscape:transform-center-y="14.433772"
       d="m 60.308363,944.52842 -50.000267,-86.60299 100.000524,-10e-6 z"
       inkscape:randomized="0"
       inkscape:rounded="0"
       inkscape:flatsided="true"
       sodipodi:arg2="2.6179939"
       sodipodi:arg1="1.5707963"
       sodipodi:r2="28.867666"
       sodipodi:r1="57.735332"
       sodipodi:cy="886.79311"
       sodipodi:cx="60.308362"
       sodipodi:sides="3"
       id="path4167"
       style="opacity:1;fill:#000000;fill-opacity:1;fill-rule:evenodd;stroke:none;stroke-width:0.1;stroke-miterlimit:4;stroke-dasharray:none;stroke-dashoffset:0;stroke-opacity:1"
       sodipodi:type="star" />
    <g
       id="g4183">
      <circle
         style="opacity:1;fill:#a40000;fill-opacity:1;fill-rule:evenodd;stroke:none;stroke-width:0.1;stroke-miterlimit:4;stroke-dasharray:none;stroke-dashoffset:0;stroke-opacity:1"
         id="circle4165"
         cx="-85.308662"
         cy="874.55304"
         r="30.024618" />
      <circle
         r="30.024618"
         cy="874.55304"
         cx="-35.308659"
         id="circle4169"
         style="opacity:1;fill:#204a87;fill-opacity:1;fill-rule:evenodd;stroke:none;stroke-width:0.1;stroke-miterlimit:4;stroke-dasharray:none;stroke-dashoffset:0;stroke-opacity:1" />
    </g>
    <path
       inkscape:connector-curvature="0"
       style="opacity:1;fill:#000000;fill-opacity:1;fill-rule:evenodd;stroke:none;stroke-width:0.1;stroke-miterlimit:4;stroke-dasharray:none;stroke-dashoffset:0;stroke-opacity:1"
       d="m 24.999996,971.5341 a 40.414349,40.414349 0 0 0 -24.92382794,8.65821 l -0.076171874697,0 L 49.999996,1052.3622 l 50,-72.16989 -0.002,0 a 40.413369,40.413369 0 0 1 -24.982375,8.6582 40.413369,40.413369 0 0 1 -24.923828,-8.6582 l -0.107422,0 A 40.414349,40.414349 0 0 0 24.999996,971.5341 Z"
       id="circle4197" />
    <circle
       r="40.414349"
       cy="1038.4644"
       cx="-120.664"
       id="circle4232"
       style="opacity:1;fill:#cc0000;fill-opacity:1;fill-rule:evenodd;stroke:none;stroke-width:0.1;stroke-miterlimit:4;stroke-dasharray:none;stroke-dashoffset:0;stroke-opacity:1" />
    <path
       id="path4234"
       d="m -120.664,998.05061 a 40.414349,40.414349 0 0 0 -24.92383,8.65819 l 49.908204,0 A 40.414349,40.414349 0 0 0 -120.664,998.05061 Z"
       style="opacity:1;fill:#000000;fill-opacity:1;fill-rule:evenodd;stroke:none;stroke-width:0.1;stroke-miterlimit:4;stroke-dasharray:none;stroke-dashoffset:0;stroke-opacity:1"
       inkscape:connector-curvature="0" />
    <path
       inkscape:transform-center-x="-3.9583478e-05"
       transform="matrix(-1,0,0,0.83333333,-145.664,201.91021)"
       inkscape:transform-center-y="12.028146"
       d="M -50.000296,1052.3622 -100.00056,965.75923 -3.3688466e-5,965.75922 Z"
       inkscape:randomized="0"
       inkscape:rounded="0"
       inkscape:flatsided="true"
       sodipodi:arg2="2.6179939"
       sodipodi:arg1="1.5707963"
       sodipodi:r2="28.867666"
       sodipodi:r1="57.735332"
       sodipodi:cy="994.62689"
       sodipodi:cx="-50.000298"
       sodipodi:sides="3"
       id="path4236"
       style="opacity:1;fill:#000000;fill-opacity:1;fill-rule:evenodd;stroke:none;stroke-width:0.1;stroke-miterlimit:4;stroke-dasharray:none;stroke-dashoffset:0;stroke-opacity:1"
       sodipodi:type="star" />
    <path
       inkscape:connector-curvature="0"
       style="opacity:1;fill:#ffffff;fill-opacity:1;fill-rule:evenodd;stroke:none;stroke-width:0.1;stroke-miterlimit:4;stroke-dasharray:none;stroke-dashoffset:0;stroke-opacity:1"
       d="m -70.648981,1015.3676 a 40.413369,40.413369 0 0 1 -24.923223,-8.658 l 49.906993,0 a 40.413369,40.413369 0 0 1 -24.98377,8.658 z"
       id="path4238" />
    <g
       id="g4268"
       transform="translate(84,-119.25)">
      <path
         style="opacity:1;fill:#000000;fill-opacity:1;fill-rule:evenodd;stroke:none;stroke-width:0.1;stroke-miterlimit:4;stroke-dasharray:none;stroke-dashoffset:0;stroke-opacity:1"
         d="M 95.265625,8.1835938 A 40.413369,40.413369 0 0 0 70.341797,16.841797 l -0.107422,0 a 40.414349,40.414349 0 0 1 -18.931641,8.173828 l -0.05273,0.07617 0.07617,0 A 40.414349,40.414349 0 0 0 76.25,33.75 40.414349,40.414349 0 0 0 101.23438,25.091797 l 0.10742,0 a 40.413369,40.413369 0 0 1 1.07812,-0.755859 l 8.83789,-12.757813 A 40.413369,40.413369 0 0 0 95.265625,8.1835938 Z"
         transform="translate(-3.8146973e-6,952.36223)"
         id="path4270"
         inkscape:connector-curvature="0" />
      <path
         style="opacity:1;fill:#000000;fill-opacity:1;fill-rule:evenodd;stroke:none;stroke-width:0.1;stroke-miterlimit:4;stroke-dasharray:none;stroke-dashoffset:0;stroke-opacity:1"
         d="M 25,19.171875 A 40.414349,40.414349 0 0 0 0.07617187,27.830078 L 0,27.830078 50,100 l 50,-72.169922 -0.002,0 A 40.413369,40.413369 0 0 1 75.015625,36.488281 40.413369,40.413369 0 0 1 50.091797,27.830078 l -0.107422,0 A 40.414349,40.414349 0 0 0 25,19.171875 Z"
         transform="translate(-3.8146973e-6,952.36223)"
         id="path4272"
         inkscape:connector-curvature="0" />
    </g>
  </g>
</svg>
