<?xml version="1.0" encoding="UTF-8" standalone="no"?>
<!-- Created with Inkscape (http://www.inkscape.org/) -->

<svg
   xmlns:dc="http://purl.org/dc/elements/1.1/"
   xmlns:cc="http://creativecommons.org/ns#"
   xmlns:rdf="http://www.w3.org/1999/02/22-rdf-syntax-ns#"
   xmlns:svg="http://www.w3.org/2000/svg"
   xmlns="http://www.w3.org/2000/svg"
   xmlns:sodipodi="http://sodipodi.sourceforge.net/DTD/sodipodi-0.dtd"
   xmlns:inkscape="http://www.inkscape.org/namespaces/inkscape"
   width="100"
   height="100"
   viewBox="0 0 99.999995 99.999997"
   id="svg2"
   version="1.1"
   inkscape:version="0.91 r13725"
   sodipodi:docname="logo.svg">
  <defs
     id="defs4" />
  <sodipodi:namedview
     id="base"
     pagecolor="#ffffff"
     bordercolor="#666666"
     borderopacity="1.0"
     inkscape:pageopacity="0.0"
     inkscape:pageshadow="2"
     inkscape:zoom="1.4142136"
     inkscape:cx="58.272423"
     inkscape:cy="53.609875"
     inkscape:document-units="px"
     inkscape:current-layer="layer1"
     showgrid="false"
     units="px"
     showguides="true"
     inkscape:guide-bbox="true"
     inkscape:window-width="1676"
     inkscape:window-height="1006"
     inkscape:window-x="4"
     inkscape:window-y="0"
     inkscape:window-maximized="1">
    <sodipodi:guide
       position="-0.24999999,99.874997"
       orientation="0,1"
       id="guide4152" />
    <sodipodi:guide
       position="49.999997,0"
       orientation="1,0"
       id="guide4154"
       inkscape:label=""
       inkscape:color="rgb(0,0,255)" />
    <sodipodi:guide
       position="0,86.602997"
       orientation="0,1"
       id="guide4193"
       inkscape:label=""
       inkscape:color="rgb(0,0,255)" />
  </sodipodi:namedview>
  <metadata
     id="metadata7">
    <rdf:RDF>
      <cc:Work
         rdf:about="">
        <dc:format>image/svg+xml</dc:format>
        <dc:type
           rdf:resource="http://purl.org/dc/dcmitype/StillImage" />
        <dc:title />
      </cc:Work>
    </rdf:RDF>
  </metadata>
  <g
     inkscape:label="Layer 1"
     inkscape:groupmode="layer"
     id="layer1"
     transform="translate(0,-952.36223)">
    <path
       transform="scale(-1,1)"
       inkscape:transform-center-y="4.5790051"
       d="m -200.26045,974.40373 -50.00027,-86.603 100.00053,0 z"
       inkscape:randomized="0"
       inkscape:rounded="0"
       inkscape:flatsided="true"
       sodipodi:arg2="2.6179939"
       sodipodi:arg1="1.5707963"
       sodipodi:r2="57.735332"
       sodipodi:r1="57.735332"
       sodipodi:cy="916.66837"
       sodipodi:cx="-200.26045"
       sodipodi:sides="3"
       id="path4168"
       style="opacity:1;fill:#729fcf;fill-opacity:1;fill-rule:evenodd;stroke:none;stroke-width:0.1;stroke-miterlimit:4;stroke-dasharray:none;stroke-dashoffset:0;stroke-opacity:1"
       sodipodi:type="star" />
    <circle
       transform="scale(-1,1)"
       r="43.301498"
       cy="931.10223"
       cx="-228.60921"
       id="circle4170"
       style="opacity:1;fill:#4e9a06;fill-opacity:1;fill-rule:evenodd;stroke:none;stroke-width:0.1;stroke-miterlimit:4;stroke-dasharray:none;stroke-dashoffset:0;stroke-opacity:1" />
    <g
       id="g4267"
       transform="translate(12.118899,-6.69822)">
      <path
         inkscape:connector-curvature="0"
         id="path4240"
         d="m 9.53369,965.7587 a 43.301498,43.301498 0 0 0 -19.06446,4.48242 l 23.1211,40.04878 20.04687,34.7207 4.244141,7.3516 38.482422,-66.65428 a 43.301498,43.301498 0 0 1 -10.132813,1.25391 43.301498,43.301498 0 0 1 -28.349609,-10.6543 l 0,0.0918 A 43.301498,43.301498 0 0 0 9.53369,965.7587 Z"
         style="opacity:1;fill:#000000;fill-opacity:1;fill-rule:evenodd;stroke:none;stroke-width:0.1;stroke-miterlimit:4;stroke-dasharray:none;stroke-dashoffset:0;stroke-opacity:1" />
      <path
         id="path4207"
         transform="translate(-3.8146973e-6,952.36223)"
         d="m 66.228516,13.396484 a 43.301498,43.301498 0 0 0 -25.357422,8.289063 43.301498,43.301498 0 0 0 25.357422,8.253906 43.301498,43.301498 0 0 0 13.351562,-2.166015 l 5.712891,-9.894532 A 43.301498,43.301498 0 0 0 66.228516,13.396484 Z"
         style="opacity:1;fill:#000000;fill-opacity:1;fill-rule:evenodd;stroke:none;stroke-width:0.1;stroke-miterlimit:4;stroke-dasharray:none;stroke-dashoffset:0;stroke-opacity:1"
         inkscape:connector-curvature="0" />
    </g>
    <g
       id="g4255"
       transform="translate(-146.25,-30.5)">
      <path
         inkscape:connector-curvature="0"
         id="path4257"
         d="m 66.228419,965.7587 a 43.301498,43.301498 0 0 1 19.064453,4.48242 l -23.121093,40.04878 -20.046875,34.7207 -4.244141,7.3516 -38.482422,-66.65428 a 43.301498,43.301498 0 0 0 10.132813,1.25391 43.301498,43.301498 0 0 0 28.349609,-10.6543 l 0,0.0918 A 43.301498,43.301498 0 0 1 66.228419,965.7587 Z"
         style="opacity:1;fill:#000000;fill-opacity:1;fill-rule:evenodd;stroke:none;stroke-width:0.1;stroke-miterlimit:4;stroke-dasharray:none;stroke-dashoffset:0;stroke-opacity:1" />
      <path
         style="opacity:1;fill:#000000;fill-opacity:1;fill-rule:evenodd;stroke:none;stroke-width:0.1;stroke-miterlimit:4;stroke-dasharray:none;stroke-dashoffset:0;stroke-opacity:1"
         d="m 9.53369,965.7587 a 43.301498,43.301498 0 0 0 -19.06446,4.48242 l 23.1211,40.04878 20.04687,34.7207 4.244141,7.3516 38.482422,-66.65428 a 43.301498,43.301498 0 0 1 -10.132813,1.25391 43.301498,43.301498 0 0 1 -28.349609,-10.6543 l 0,0.0918 A 43.301498,43.301498 0 0 0 9.53369,965.7587 Z"
         id="path4259"
         inkscape:connector-curvature="0" />
      <circle
         style="opacity:1;fill:#ef2929;fill-opacity:1;fill-rule:evenodd;stroke:none;stroke-width:0.1;stroke-miterlimit:4;stroke-dasharray:none;stroke-dashoffset:0;stroke-opacity:1"
         id="circle4261"
         cx="66.229263"
         cy="943.66071"
         r="43.301498" />
    </g>
  </g>
</svg>
